<svg width="81" height="18" viewBox="0 0 81 18" fill="none" xmlns="http://www.w3.org/2000/svg">
<path fill-rule="evenodd" clip-rule="evenodd" d="M4.23348 10.2993L3.45457 11.7655V16.6909H0.93457V0.654586H3.45457V7.64186L6.75348 0.654586H9.27348L5.76839 7.80222L9.27348 16.6909H6.68475L4.23348 10.2993ZM12.8309 13.0026C12.8309 13.583 12.9493 13.9915 13.186 14.2282C13.4228 14.465 13.7397 14.5833 14.1368 14.5833C14.5338 14.5833 14.8507 14.465 15.0875 14.2282C15.3242 13.9915 15.4426 13.583 15.4426 13.0026V4.34295C15.4426 3.76258 15.3242 3.35404 15.0875 3.11731C14.8507 2.88059 14.5338 2.76222 14.1368 2.76222C13.7397 2.76222 13.4228 2.88059 13.186 3.11731C12.9493 3.35404 12.8309 3.76258 12.8309 4.34295V13.0026ZM10.3109 4.50331C10.3109 3.20513 10.6393 2.20859 11.296 1.51368C11.9528 0.818765 12.8997 0.471313 14.1368 0.471313C15.3738 0.471313 16.3207 0.818765 16.9775 1.51368C17.6342 2.20859 17.9626 3.20513 17.9626 4.50331V12.8422C17.9626 14.1404 17.6342 15.1369 16.9775 15.8319C16.3207 16.5268 15.3738 16.8742 14.1368 16.8742C12.8997 16.8742 11.9528 16.5268 11.296 15.8319C10.6393 15.1369 10.3109 14.1404 10.3109 12.8422V4.50331ZM22.0928 5.07604V16.6909H19.8248V0.654586H22.9862L25.5749 10.2535V0.654586H27.82V16.6909H25.2313L22.0928 5.07604ZM29.5677 4.50331C29.5677 3.20513 29.8769 2.20859 30.4955 1.51368C31.114 0.818765 32.0418 0.471313 33.2789 0.471313C34.516 0.471313 35.4438 0.818765 36.0624 1.51368C36.6809 2.20859 36.9902 3.20513 36.9902 4.50331V5.00731H34.6077V4.34295C34.6077 3.76258 34.4969 3.35404 34.2755 3.11731C34.054 2.88059 33.7448 2.76222 33.3477 2.76222C32.9506 2.76222 32.6413 2.88059 32.4198 3.11731C32.1984 3.35404 32.0877 3.76258 32.0877 4.34295C32.0877 4.89277 32.2098 5.37768 32.4542 5.79768C32.6986 6.21768 33.004 6.61477 33.3706 6.98895C33.7371 7.36313 34.1304 7.73731 34.5504 8.1115C34.9704 8.48568 35.3637 8.89422 35.7302 9.33713C36.0968 9.78004 36.4022 10.284 36.6466 10.8491C36.8909 11.4142 37.0131 12.0786 37.0131 12.8422C37.0131 14.1404 36.6962 15.1369 36.0624 15.8319C35.4286 16.5268 34.4931 16.8742 33.256 16.8742C32.0189 16.8742 31.0835 16.5268 30.4497 15.8319C29.8158 15.1369 29.4989 14.1404 29.4989 12.8422V11.8571H31.8815V13.0026C31.8815 13.583 31.9998 13.9877 32.2366 14.2168C32.4733 14.4459 32.7902 14.5604 33.1873 14.5604C33.5844 14.5604 33.9013 14.4459 34.138 14.2168C34.3748 13.9877 34.4931 13.583 34.4931 13.0026C34.4931 12.4528 34.3709 11.9679 34.1266 11.5479C33.8822 11.1279 33.5768 10.7308 33.2102 10.3566C32.8437 9.9824 32.4504 9.60822 32.0304 9.23404C31.6104 8.85986 31.2171 8.45132 30.8506 8.00841C30.484 7.56549 30.1786 7.0615 29.9342 6.4964C29.6898 5.93131 29.5677 5.26695 29.5677 4.50331ZM37.9818 0.654586H45.7709V2.9455H43.1364V16.6909H40.6164V2.9455H37.9818V0.654586ZM52.3982 16.6909C52.3677 16.584 52.3371 16.4848 52.3066 16.3931C52.276 16.3015 52.2493 16.1869 52.2264 16.0495C52.2035 15.912 52.1882 15.7364 52.1806 15.5226C52.1729 15.3088 52.1691 15.0415 52.1691 14.7208V12.2008C52.1691 11.4524 52.0393 10.9255 51.7797 10.62C51.52 10.3146 51.1 10.1619 50.5197 10.1619H49.6491V16.6909H47.1291V0.654586H50.932C52.2455 0.654586 53.1962 0.960038 53.7842 1.57095C54.3722 2.18186 54.6662 3.10585 54.6662 4.34295V5.60295C54.6662 7.25241 54.1164 8.33676 53.0167 8.85604C53.6582 9.11568 54.0973 9.53949 54.334 10.1275C54.5708 10.7155 54.6891 11.4295 54.6891 12.2695V14.7437C54.6891 15.1408 54.7044 15.4882 54.7349 15.786C54.7655 16.0839 54.8418 16.3855 54.964 16.6909H52.3982ZM49.6491 2.9455V7.87095H50.6342C51.1077 7.87095 51.478 7.74877 51.7453 7.50441C52.0126 7.26004 52.1462 6.81714 52.1462 6.17568V4.59495C52.1462 4.01458 52.0431 3.59459 51.8369 3.33495C51.6308 3.07531 51.3062 2.9455 50.8633 2.9455H49.6491ZM59.0026 0.654586V13.0255C59.0026 13.6059 59.1209 14.0106 59.3577 14.2397C59.5944 14.4688 59.9113 14.5833 60.3084 14.5833C60.7055 14.5833 61.0224 14.4688 61.2591 14.2397C61.4958 14.0106 61.6142 13.6059 61.6142 13.0255V0.654586H63.9968V12.8651C63.9968 14.1633 63.6799 15.1599 63.046 15.8548C62.4122 16.5497 61.4768 16.8971 60.2397 16.8971C59.0026 16.8971 58.0671 16.5497 57.4333 15.8548C56.7995 15.1599 56.4826 14.1633 56.4826 12.8651V0.654586H59.0026ZM72.8593 0.654586H80.6484V2.9455H78.0138V16.6909H75.4938V2.9455H72.8593V0.654586Z" fill="#171819"/>
<path fill-rule="evenodd" clip-rule="evenodd" d="M65.1938 8.98834L71.7393 0.806519V17.1702L65.1938 8.98834Z" fill="#00A4E5"/>
</svg>
